<svg version="1.1" xmlns="http://www.w3.org/2000/svg" x="0" y="0" width="70" height="59" viewBox="0 0 70 59" xml:space="preserve">
  <path d="M37.3 47.5c0 6.3-5.2 11.3-11.4 11.4-6.4.1-13-4-14.9-10.3-6.1-2-10.1-7.4-9.2-14-3.1-5.4-2.4-12.6 3-16.3C4.7 12.8 7 7.7 12.6 6c2-3.5 5.2-5.9 9.4-6 3.7-.1 7.4 1.8 9.5 4.8 1.7 2.5-2 5-3.7 2.6-1.2-1.8-3.6-2.9-5.7-2.9-2.5 0-4.3 1.6-5.5 3.7-.5 1.7-.8 4.2.5 5.7 1.9 2.3-1.6 5.2-3.5 2.9-1.2-1.5-1.8-3.2-1.9-5.1-2.1 1.9-2.4 5-2.1 7.6.1.9-.4 1.8-1.2 2.3-3.9 2-4.6 6.5-2.8 10.2.5.9 1.2 1.6 1 2.8-1.6 8 8.1 13 14 8.5 2.4-1.8 5.1 1.8 2.8 3.6-2 1.5-4.4 2.4-6.9 2.6 2 3.2 5.9 5.1 9.6 5.1s6.9-3 6.9-6.8v-36C33 5.3 38.2.3 44.4.2c6.4-.1 13 4 14.9 10.3 6.1 2 10.1 7.4 9.2 14 3.1 5.4 2.4 12.6-3 16.3.2 5.5-2.2 10.6-7.7 12.3-2 3.5-5.2 5.9-9.4 6-3.7.1-7.4-1.8-9.5-4.8-1.7-2.5 2-5 3.7-2.6 1.2 1.8 3.6 2.9 5.7 2.9 2.5 0 4.3-1.6 5.5-3.7.5-1.7.8-4.2-.5-5.7-1.9-2.3 1.6-5.2 3.5-2.9 1.2 1.5 1.8 3.2 1.9 5.1 2.1-1.9 2.4-5 2.1-7.6-.1-.9.4-1.8 1.2-2.3 3.9-2 4.6-6.5 2.8-10.2-.5-.9-1.2-1.6-1-2.8 1.6-8-8.1-13-14-8.5-2.4 1.8-5.1-1.8-2.8-3.6 2-1.5 4.4-2.4 6.9-2.6-2-3.2-5.9-5.1-9.6-5.1s-6.9 3-6.9 6.8v36h-.1z" fill="#fff"/>
  <path d="M19.3 22.1c1.3 0 2.4 1.1 2.4 2.4V27h2.5c1.3 0 2.4 1.1 2.4 2.4 0 1.3-1.1 2.4-2.4 2.4h-2.5v2.5c0 1.3-1.1 2.4-2.4 2.4-1.3 0-2.4-1.1-2.4-2.4v-2.5h-2.5c-1.3 0-2.4-1.1-2.4-2.4 0-1.3 1.1-2.4 2.4-2.4h2.5v-2.5c0-1.3 1.1-2.4 2.4-2.4zM50.7 31.7c1.4 0 2.6 1.1 2.6 2.6 0 1.4-1.2 2.6-2.6 2.6-1.4 0-2.6-1.1-2.6-2.6s1.2-2.6 2.6-2.6zM48.5 29.5c0 1.4-1.2 2.6-2.6 2.6-1.4 0-2.6-1.2-2.6-2.6s1.2-2.6 2.6-2.6c1.4 0 2.6 1.2 2.6 2.6zM50.7 22.1c1.4 0 2.6 1.2 2.6 2.6s-1.2 2.6-2.6 2.6c-1.4 0-2.6-1.2-2.6-2.6 0-1.4 1.2-2.6 2.6-2.6zM58 29.5c0 1.4-1.2 2.6-2.6 2.6-1.4 0-2.6-1.2-2.6-2.6s1.2-2.6 2.6-2.6c1.5 0 2.6 1.2 2.6 2.6z" fill-rule="evenodd" clip-rule="evenodd" fill="#fff"/>
</svg>